<?xml version="1.0" encoding="utf-8"?>
<!-- Generator: Adobe Illustrator 15.0.0, SVG Export Plug-In . SVG Version: 6.00 Build 0)  -->
<!DOCTYPE svg PUBLIC "-//W3C//DTD SVG 1.1//EN" "http://www.w3.org/Graphics/SVG/1.1/DTD/svg11.dtd">
<svg version="1.1" id="Layer_1" xmlns="http://www.w3.org/2000/svg" xmlns:xlink="http://www.w3.org/1999/xlink" x="0px" y="0px"
	 width="24px" height="24px" viewBox="0 0 24 24" enable-background="new 0 0 24 24" xml:space="preserve">
<g>
	
		<linearGradient id="SVGID_1_" gradientUnits="userSpaceOnUse" x1="6.7427" y1="26.6777" x2="17.7427" y2="-4.5723" gradientTransform="matrix(1 0 0 -1 -0.0151 23.6992)">
		<stop  offset="0.1357" style="stop-color:#08F5FF"/>
		<stop  offset="0.8467" style="stop-color:#D914F4"/>
	</linearGradient>
	<path fill="url(#SVGID_1_)" d="M12,24C5.383,24,0,18.617,0,12S5.383,0,12,0s12,5.383,12,12S18.617,24,12,24z M12,4
		c-4.411,0-8,3.589-8,8s3.589,8,8,8s8-3.589,8-8S16.411,4,12,4z"/>
	<path opacity="0.32" fill="#FFFFFF" enable-background="new    " d="M13.75,1.649c2.313,0,4.504,0.589,6.445,1.61
		C18.049,1.244,15.17,0,12,0C5.383,0,0,5.383,0,12c0,0.2,0.021,0.396,0.029,0.594C1.496,6.387,7.146,1.649,13.75,1.649z"/>
</g>
</svg>
